<svg xmlns="http://www.w3.org/2000/svg" xmlns:xlink="http://www.w3.org/1999/xlink" xmlns:inkscape="http://www.inkscape.org/namespaces/inkscape" version="1.1" width="595.276" height="841.89" viewBox="0 0 595.276 841.89">
<defs>
<clipPath id="clip_1">
<path transform="matrix(1,0,0,-1,0,841.89)" d="M0 841.89H595.276V0H0Z"/>
</clipPath>
</defs>
<path transform="matrix(1,0,0,-1,0,841.89)" d="M559.832 135.256H35.44397V706.634H559.832Z" fill="#231f20"/>
<path transform="matrix(1,0,0,-1,0,841.89)" stroke-width="1" stroke-linecap="butt" stroke-miterlimit="10" stroke-linejoin="miter" fill="none" stroke="#ffffff" d="M559.832 135.256H35.44397V706.634H559.832Z"/>
<path transform="matrix(1,0,0,-1,229.4059,158.1659)" d="M0 0-3-1.732-67.494-38.968-70.494-40.7V-44.164-118.635-122.099L-67.494-123.831-3-161.067 0-162.799 3-161.067 67.494-123.831 70.494-122.099V-118.635-44.164-40.7L67.494-38.968 3-1.732ZM0-6.928 64.494-44.164V-118.635L0-155.871-64.494-118.635V-44.164Z" fill="#c3c5c7"/>
<path transform="matrix(1,0,0,-1,367.6182,158.1659)" d="M0 0-3-1.732-67.494-38.968-70.494-40.7V-44.164-118.635-122.099L-67.494-123.831-3-161.067 0-162.799 3-161.067 67.494-123.831 70.494-122.099V-118.635-44.164-40.7L67.494-38.968 3-1.732ZM0-6.928 64.494-44.164V-118.635L0-155.871-64.494-118.635V-44.164Z" fill="#c3c5c7"/>
<path transform="matrix(1,0,0,-1,160.2998,276.61415)" d="M0 0-3-1.732-67.494-38.968-70.494-40.7V-44.164-118.635-122.099L-67.494-123.831-3-161.067 0-162.799 3-161.067 67.494-123.831 70.494-122.099V-118.635-44.164-40.7L67.494-38.968 3-1.732ZM0-6.928 64.494-44.164V-118.635L0-155.871-64.494-118.635V-44.164Z" fill="#c3c5c7"/>
<path transform="matrix(1,0,0,-1,297.6378,276.61415)" d="M0 0-3-1.732-67.494-38.968-70.494-40.7V-44.164-118.635-122.099L-67.494-123.831-3-161.067 0-162.799 3-161.067 67.494-123.831 70.494-122.099V-118.635-44.164-40.7L67.494-38.968 3-1.732ZM0-6.928 64.494-44.164V-118.635L0-155.871-64.494-118.635V-44.164Z" fill="#c3c5c7"/>
<path transform="matrix(1,0,0,-1,434.9758,277.7173)" d="M0 0-3-1.732-67.494-38.968-70.494-40.7V-44.164-118.635-122.099L-67.494-123.831-3-161.067 0-162.799 3-161.067 67.494-123.831 70.494-122.099V-118.635-44.164-40.7L67.494-38.968 3-1.732ZM0-6.928 64.494-44.164V-118.635L0-155.871-64.494-118.635V-44.164Z" fill="#c3c5c7"/>
<path transform="matrix(1,0,0,-1,229.4059,394.09483)" d="M0 0-3-1.732-67.494-38.968-70.494-40.7V-44.164-118.635-122.099L-67.494-123.831-3-161.067 0-162.799 3-161.067 67.494-123.831 70.494-122.099V-118.635-44.164-40.7L67.494-38.968 3-1.732ZM0-6.928 64.494-44.164V-118.635L0-155.871-64.494-118.635V-44.164Z" fill="#c3c5c7"/>
<path transform="matrix(1,0,0,-1,367.6182,394.09483)" d="M0 0-3-1.732-67.494-38.968-70.494-40.7V-44.164-118.635-122.099L-67.494-123.831-3-161.067 0-162.799 3-161.067 67.494-123.831 70.494-122.099V-118.635-44.164-40.7L67.494-38.968 3-1.732ZM0-6.928 64.494-44.164V-118.635L0-155.871-64.494-118.635V-44.164Z" fill="#c3c5c7"/>
<g clip-path="url(#clip_1)">
<path transform="matrix(1,0,0,-1,338.2711,432.57014)" d="M0 0C0-41.631-18.192-75.38-40.633-75.38-63.074-75.38-81.267-41.631-81.267 0-81.267 41.631-63.074 75.38-40.633 75.38-18.192 75.38 0 41.631 0 0" fill="#231f20"/>
<path transform="matrix(1,0,0,-1,338.2711,432.57014)" stroke-width="1" stroke-linecap="butt" stroke-miterlimit="10" stroke-linejoin="miter" fill="none" stroke="#ffffff" d="M0 0C0-41.631-18.192-75.38-40.633-75.38-63.074-75.38-81.267-41.631-81.267 0-81.267 41.631-63.074 75.38-40.633 75.38-18.192 75.38 0 41.631 0 0Z"/>
<path transform="matrix(1,0,0,-1,264.8206,287.24909)" d="M0 0C-.381 4.491 3.144 11.72 5.405 15.649 6.213 17.052 9.397 20.701 9.242 21.828 8.957 23.901 5.44 29.803 4.176 31.878 .507 37.905-4.266 43.247-8.633 48.763-9.74 52.292-7.528 54.509-3.968 53.428-2.587 53.008 3.223 48.601 4.641 47.413 10.003 42.918 15.188 36.662 18.624 30.585 19.163 30.216 27.252 36.537 28.81 37.232 30.662 38.058 34.418 38.573 36.345 38.118 38.031 37.721 46.436 30.217 46.975 30.583 50.349 36.816 55.546 42.857 60.957 47.414 64.387 50.303 75.254 59.048 74.131 48.869 68.702 41.768 62.236 34.682 58.266 26.614 57.926 25.925 56.408 22.692 56.349 22.275 56.176 21.057 58.555 18.996 59.319 17.876 63.096 12.339 65.947 6.989 65.599 0 65.489-2.199 64.661-5.95 63.826-7.978 60.246-16.672 41.722-32.107 32.144-31.47 29.565-31.299 25.606-29.63 23.491-28.367 23.335-27.885 23.005-27.716 22.605-27.481 20.375-26.168 18.082-24.684 15.956-23.491 15.819-23.014 15.419-22.869 15.07-22.605 14.268-21.998 13.102-21.384 12.411-20.832L12.339-20.017 11.967-20.389C8.81-17.705 3.889-11.716 2.216-7.978 1.548-6.484 .131-1.548 0 0" fill="#ffffff"/>
<path transform="matrix(1,0,0,-1,323.7708,471.63954)" d="M0 0C-11.003-.703-21.983-1.719-33.039-1.344-38.755-1.15-46.13-.737-51.728 .365-52.362 .489-52.431 .527-52.309-.221-52.126-1.348-48.11-7.438-47.166-8.821-44.737-12.377-41.618-16.242-38.789-19.504-36.261-22.42-29.868-29.452-25.939-29.284-22.279-29.127-16.417-22.67-13.956-19.947-8.531-13.948-3.81-7.119 0 0M10.193 31.472C-8.712 28.351-28.034 27.226-47.148 29.315-48.467 29.459-62.47 32.022-62.503 31.246-61.716 27.95-61.599 24.424-60.725 21.157-60.64 20.84-60.509 20.75-60.191 20.694-47.444 18.684-33.978 17.34-21.032 17.713-16.322 17.848-10.687 18.185-5.988 18.625-1.475 19.047 3.055 19.952 7.538 20.612 9.104 21.399 9.562 29.494 10.193 31.472M5.761 60.73C-15.34 56.888-36.708 56.736-57.802 60.76-58.392 59.465-60.846 51.079-60.283 50.533-37.743 46.394-14.561 46.393 7.981 50.533 8.131 54.124 6.065 57.228 5.761 60.73M-20.647 106.566C-21.686 107.691-24.647 111.423-26.009 111.627-28.333 111.976-40.122 96.445-41.845 93.93-45.108 89.167-47.866 84.017-50.528 78.905-36.185 76.711-20.004 76.122-5.595 78.068-3.248 78.385-1.566 78.2-2.71 80.846-6.167 88.847-14.678 100.108-20.647 106.566M-174.635 200.347C-172.443 200.179-170.167 200.121-167.986 199.904-137.149 196.835-105.225 187.167-77.123 174.196-74.25 172.87-70.736 171.235-67.815 169.764-53.209 162.405-42.891 150.953-29.658 142.987-28.511 142.296-26.965 141.239-25.599 141.469-23.848 141.764-19.953 145.027-18.354 146.254-17.829 146.658-17.069 146.653-17.286 147.602-9.99 150.859-1.522 159.874 5.619 164.366 8.879 166.417 13.332 168.453 16.843 170.207 19.427 171.497 22.335 173.052 24.821 174.196 52.902 187.117 84.884 196.859 115.685 199.904 117.866 200.119 120.141 200.179 122.333 200.347 149.548 202.431 189.048 199.986 214.642 190.047 224.442 186.241 220.933 178.245 218.078 170.422 212.365 154.767 200.116 136.948 187.932 125.883 155.966 96.855 111.957 88.177 70.475 98.846 68.138 99.447 67.466 100.358 65.617 100.861 64.65 101.124 63.536 100.892 62.94 101.062 60.74 101.691 59.707 106.573 59.837 108.597 60.912 109.311 61.712 110.431 63.151 110.38 77.474 110.409 91.851 108.984 106.098 110.87 133.434 114.489 157.979 129.152 176.192 149.369 178.278 151.683 181.41 154.912 182.17 157.796 182.445 157.846 182.835 157.723 183.056 157.796 183.671 157.999 183.658 158.372 183.943 158.683 184.211 158.975 184.641 159.645 184.829 160.012 184.962 160.272 185.242 160.281 185.273 160.899 185.28 161.041 185.305 161.245 185.273 161.342 186.522 161.536 187.618 163.757 188.375 164.888 188.983 165.796 189.656 166.343 190.047 166.986 193.778 173.123 189.917 174.122 184.553 175.028 173.157 176.955 159.1 178.425 147.598 178.185 120.877 177.629 93.424 172.588 67.815 165.331 58.106 162.58 49.672 159.729 40.335 156.023 24.653 149.8 2.744 140.202-10.744 130.299-12.867 128.741-15.81 126.186-14.724 123.348-13.467 120.061-5.288 114.736-2.426 112.155 10.689 100.323 21.765 83.579 26.594 66.49 27.251 64.167 27.911 60.917 28.367 58.512 33.902 29.34 26.536 1.93 8.627-21.245-.779-33.416-7.416-39.999-14.627-54.07-18.279-61.198-18.986-65.244-21.82-72.363-22.679-74.52-24.141-75.114-23.935-77.562-24.731-77.119-28.193-77.257-28.349-77.098-28.436-77.009-28.308-75.937-28.607-75.378-32.284-68.48-33.555-61.403-37.232-54.07-47.982-32.629-66.35-19.225-75.558 3.564-81.576 18.46-83.766 35.413-81.998 51.42-81.798 53.23-81.435 55.842-81.112 57.625-80.668 60.074-79.602 64.007-78.896 66.49-72.907 87.541-60.513 102.997-44.323 117.019-43.772 117.496-43.37 118.021-42.994 118.348-42.909 118.422-42.635 118.275-42.551 118.348-40.419 120.184-36.014 122.646-37.567 126.213-38.865 129.194-51.41 136.269-54.825 138.208-66.964 145.101-80.09 151.333-93.079 156.467-102.513 160.195-112.148 163.059-121.89 165.775-147.132 172.811-173.584 177.545-199.899 178.185-211.346 178.463-225.507 176.963-236.849 175.022-238.765 174.694-243.417 174.026-243.784 171.733-244.411 167.819-237.721 160.788-235.358 157.796-218.114 135.969-196.182 119.017-168.522 112.715-154.65 109.555-141.146 109.699-126.969 109.909-122.945 109.968-111.382 112.864-112.138 105.938-112.144 105.888-112.439 105.48-112.582 105.051-112.833 104.3-113.493 103.118-113.911 102.392-117.538 101.06-121.171 99.587-124.897 98.529-162.576 87.829-198.162 96.598-229.991 117.751-230.495 118.086-230.697 118.933-231.564 119.294-232.51 119.688-233.088 119.174-233.134 119.237-233.486 119.721-233.174 119.607-234.028 120.565-234.09 120.634-233.941 121.118-234.16 121.315-234.428 121.554-234.852 121.397-234.915 121.451-236.58 122.874-238.059 124.536-239.79 125.883H-240.234C-240.226 126.069-240.635 126.863-240.817 127.068-243.778 128.9-245.535 132.321-248.655 133.862-248.874 135.753-253.147 139.929-254.593 141.886-259.181 148.093-263.285 154.761-266.7 161.692-267.113 162.53-268.402 166.489-268.607 166.659-268.662 166.705-269.27 166.686-269.487 166.661-270.014 170.965-272.265 174.831-273.033 179.072-274.377 186.493-271.708 188.325-265.285 190.604-261.466 191.959-256.616 193.168-252.644 194.142-242.112 196.724-230.776 198.81-219.845 199.904-204.763 201.413-189.739 201.505-174.635 200.347" fill="#ffffff"/>
<path transform="matrix(1,0,0,-1,139.2041,619.209)" d="M0 0C.74-.053 1.506-.107 2.297-.159 3.09-.211 3.854-.237 4.594-.237 6.811-.237 8.738-.079 10.375 .237 12.011 .554 13.371 1.149 14.454 2.02 15.535 2.891 16.341 4.078 16.869 5.584 17.397 7.088 17.662 9.028 17.662 11.404 17.662 14.361 16.842 16.777 15.207 18.651 13.57 20.525 11.22 21.462 8.158 21.462H0ZM0 24.948H2.06L6.178 24.868H8.237C9.451 24.868 10.467 25.158 11.287 25.739 12.104 26.319 12.751 27.072 13.227 27.996 13.702 28.919 14.044 29.936 14.257 31.046 14.467 32.155 14.572 33.21 14.572 34.213 14.572 37.382 13.807 39.876 12.277 41.697 10.744 43.519 8.633 44.43 5.94 44.43H4.436L1.506 44.35H0ZM-17.422-3.564V-.554C-16.368-.554-15.497-.344-14.81 .079-14.124 .501-13.57 1.056-13.147 1.743-12.724 2.429-12.434 3.207-12.275 4.078-12.117 4.95-12.037 5.833-12.037 6.731V37.46C-12.037 38.357-12.117 39.243-12.275 40.113-12.434 40.984-12.724 41.763-13.147 42.45-13.57 43.136-14.124 43.69-14.81 44.113-15.497 44.534-16.368 44.747-17.422 44.747V47.756C-13.57 47.756-9.728 47.769-5.9 47.796-2.073 47.821 1.743 47.836 5.544 47.836 7.867 47.836 10.297 47.717 12.831 47.479 15.365 47.241 17.688 46.66 19.799 45.737 21.911 44.813 23.654 43.48 25.026 41.737 26.399 39.994 27.086 37.619 27.086 34.609 27.086 32.919 26.69 31.428 25.898 30.135 25.106 28.841 24.102 27.732 22.889 26.808 21.674 25.884 20.301 25.145 18.771 24.591 17.238 24.036 15.734 23.681 14.257 23.522 16.367 23.522 18.387 23.296 20.315 22.848 22.241 22.399 23.931 21.672 25.383 20.671 26.835 19.667 27.996 18.361 28.868 16.751 29.739 15.14 30.175 13.147 30.175 10.771 30.175 8.237 29.686 6.124 28.709 4.436 27.732 2.744 26.452 1.373 24.869 .317 23.285-.74 21.464-1.544 19.404-2.099 17.345-2.653 15.218-3.049 13.028-3.287 10.837-3.524 8.66-3.643 6.494-3.643H.634-3.88L-12.908-3.564Z" fill="#ffffff"/>
<path transform="matrix(1,0,0,-1,192.5825,603.7653)" d="M0 0C-1.32-.053-2.454-.33-3.404-.831-4.356-1.334-5.121-1.954-5.701-2.693-6.283-3.433-6.718-4.237-7.008-5.108-7.3-5.98-7.444-6.838-7.444-7.683-7.393-9.214-6.93-10.561-6.058-11.721-5.187-12.884-3.907-13.464-2.217-13.464-1.424-13.464-.66-13.332 .08-13.068ZM-19.641 5.544C-19.641 7.391-19.232 9.068-18.412 10.573-17.595 12.077-16.432 13.357-14.928 14.414-13.424 15.47-11.641 16.301-9.583 16.908-7.523 17.515-5.227 17.819-2.693 17.819-1.161 17.819 .501 17.687 2.297 17.424 4.091 17.158 5.754 16.631 7.287 15.839 8.817 15.047 10.098 13.885 11.128 12.354 12.157 10.823 12.672 8.791 12.672 6.257V-10.534-12.83C12.672-13.517 12.764-14.097 12.95-14.572 13.134-15.048 13.464-15.418 13.939-15.681 14.415-15.946 15.127-16.077 16.078-16.077L16.157-19.008C14.941-19.112 13.635-19.205 12.237-19.285 10.837-19.364 9.451-19.404 8.078-19.404 7.021-19.404 6.006-19.351 5.03-19.245 4.051-19.139 3.194-18.955 2.456-18.691 1.716-18.428 1.136-18.071 .713-17.622 .29-17.174 .08-16.579 .08-15.84-1.083-17.002-2.376-17.886-3.801-18.492-5.227-19.099-6.864-19.429-8.711-19.482-10.19-19.535-11.63-19.389-13.027-19.047-14.427-18.705-15.681-18.176-16.79-17.464-17.898-16.751-18.797-15.814-19.482-14.652-20.169-13.491-20.512-12.091-20.512-10.454-20.512-7.815-19.799-5.69-18.374-4.078-16.948-2.468-15.192-1.201-13.107-.277-11.021 .646-8.79 1.319-6.414 1.743-4.038 2.164-1.9 2.507 0 2.771 0 3.51 .027 4.54 .08 5.86 .131 7.18 .08 8.474-.079 9.741-.237 11.008-.581 12.104-1.109 13.028-1.637 13.951-2.507 14.414-3.721 14.414-4.778 14.414-5.636 14.11-6.296 13.503-6.957 12.895-7.457 12.143-7.8 11.245-8.144 10.347-8.368 9.397-8.474 8.394-8.58 7.391-8.633 6.467-8.633 5.623Z" fill="#ffffff"/>
<path transform="matrix(1,0,0,-1,225.3701,614.8534)" d="M0 0C0-2.059 .224-3.393 .673-3.999 1.121-4.607 1.901-4.91 3.01-4.91V-7.92H-15.047V-4.91C-13.938-4.91-13.16-4.593-12.711-3.96-12.262-3.326-12.038-1.98-12.038 .08V35.877C-12.038 37.09-12.21 38.055-12.552 38.767-12.897 39.48-13.649 39.783-14.81 39.679V42.687L-2.297 46.964H0Z" fill="#ffffff"/>
<path transform="matrix(1,0,0,-1,245.4866,617.1505)" d="M0 0C.739-.74 1.57-1.346 2.494-1.821 3.417-2.296 4.407-2.534 5.464-2.534 7.311-2.534 8.857-2.033 10.097-1.029 11.337-.027 12.327 1.228 13.067 2.733 13.807 4.238 14.334 5.847 14.651 7.564 14.968 9.28 15.127 10.877 15.127 12.355 15.127 13.57 14.994 14.981 14.731 16.592 14.465 18.202 14.03 19.721 13.424 21.146 12.817 22.572 11.984 23.786 10.93 24.789 9.873 25.792 8.553 26.295 6.97 26.295 5.648 26.295 4.396 25.938 3.207 25.225 2.02 24.512 .95 23.759 0 22.968ZM0 27.086C1.53 28.246 3.22 29.092 5.068 29.62 6.916 30.148 8.791 30.412 10.691 30.412 13.173 30.412 15.43 29.989 17.462 29.145 19.495 28.3 21.237 27.138 22.689 25.661 24.141 24.182 25.264 22.414 26.056 20.355 26.848 18.295 27.243 16.025 27.243 13.544 27.243 10.64 26.729 7.985 25.699 5.584 24.669 3.181 23.257 1.11 21.462-.633 19.667-2.376 17.528-3.721 15.047-4.671 12.565-5.623 9.9-6.097 7.048-6.097 4.514-6.097 2.164-5.543 0-4.434V-15.997C0-16.578 .012-17.171 .04-17.779 .066-18.385 .17-18.928 .356-19.402 .54-19.878 .831-20.247 1.227-20.511 1.623-20.775 2.217-20.908 3.01-20.908V-23.917H-15.048V-20.908C-14.255-20.908-13.662-20.761-13.265-20.472-12.87-20.181-12.581-19.799-12.395-19.324-12.21-18.848-12.105-18.307-12.078-17.7-12.052-17.092-12.038-16.498-12.038-15.918V19.879C-12.038 20.829-12.197 21.726-12.514 22.572-12.83 23.416-13.597 23.786-14.81 23.681V26.69L-2.297 30.967H0Z" fill="#ffffff"/>
<path transform="matrix(1,0,0,-1,295.8551,603.7653)" d="M0 0C-1.32-.053-2.454-.33-3.404-.831-4.356-1.334-5.121-1.954-5.701-2.693-6.283-3.433-6.718-4.237-7.008-5.108-7.3-5.98-7.444-6.838-7.444-7.683-7.393-9.214-6.93-10.561-6.058-11.721-5.187-12.884-3.907-13.464-2.217-13.464-1.424-13.464-.66-13.332 .08-13.068ZM-19.641 5.544C-19.641 7.391-19.232 9.068-18.412 10.573-17.595 12.077-16.432 13.357-14.928 14.414-13.424 15.47-11.641 16.301-9.583 16.908-7.523 17.515-5.227 17.819-2.693 17.819-1.161 17.819 .501 17.687 2.297 17.424 4.091 17.158 5.754 16.631 7.287 15.839 8.817 15.047 10.098 13.885 11.128 12.354 12.157 10.823 12.672 8.791 12.672 6.257V-10.534-12.83C12.672-13.517 12.764-14.097 12.95-14.572 13.134-15.048 13.464-15.418 13.939-15.681 14.415-15.946 15.127-16.077 16.078-16.077L16.157-19.008C14.941-19.112 13.635-19.205 12.237-19.285 10.837-19.364 9.451-19.404 8.078-19.404 7.021-19.404 6.006-19.351 5.03-19.245 4.051-19.139 3.194-18.955 2.456-18.691 1.716-18.428 1.136-18.071 .713-17.622 .29-17.174 .08-16.579 .08-15.84-1.083-17.002-2.376-17.886-3.801-18.492-5.227-19.099-6.864-19.429-8.711-19.482-10.19-19.535-11.63-19.389-13.027-19.047-14.427-18.705-15.681-18.176-16.79-17.464-17.898-16.751-18.797-15.814-19.482-14.652-20.169-13.491-20.512-12.091-20.512-10.454-20.512-7.815-19.799-5.69-18.374-4.078-16.948-2.468-15.192-1.201-13.107-.277-11.021 .646-8.79 1.319-6.414 1.743-4.039 2.164-1.9 2.507 0 2.771 0 3.51 .027 4.54 .08 5.86 .131 7.18 .08 8.474-.079 9.741-.237 11.008-.581 12.104-1.109 13.028-1.637 13.951-2.507 14.414-3.721 14.414-4.778 14.414-5.636 14.11-6.296 13.503-6.957 12.895-7.457 12.143-7.8 11.245-8.144 10.347-8.368 9.397-8.474 8.394-8.58 7.391-8.633 6.467-8.633 5.623Z" fill="#ffffff"/>
<path transform="matrix(1,0,0,-1,328.564,592.757)" d="M0 0C.634 1.109 1.386 2.071 2.257 2.891 3.128 3.709 4.051 4.408 5.028 4.99 6.006 5.57 6.996 6.006 7.998 6.296 9.001 6.586 9.951 6.731 10.85 6.731 12.223 6.731 13.397 6.376 14.374 5.663 15.351 4.95 15.84 3.827 15.84 2.297 15.84 .819 15.285-.264 14.177-.95 13.068-1.637 11.853-1.98 10.534-1.98 9.424-1.98 8.368-1.888 7.365-1.703 6.361-1.518 5.411-1.426 4.514-1.426 3.616-1.426 2.784-1.611 2.02-1.98 1.253-2.35 .58-3.141 0-4.356V-22.096C0-22.729 .013-23.338 .04-23.918 .066-24.499 .17-25.013 .356-25.462 .541-25.911 .831-26.281 1.227-26.571 1.624-26.862 2.217-27.006 3.01-27.006V-30.016H-15.048V-27.006C-14.255-27.006-13.661-26.862-13.265-26.571-12.87-26.281-12.58-25.898-12.394-25.422-12.21-24.948-12.105-24.421-12.078-23.838-12.051-23.258-12.038-22.651-12.038-22.016V-4.514C-12.038-4.093-12.065-3.67-12.117-3.247-12.171-2.826-12.275-2.416-12.434-2.02-12.592-1.624-12.818-1.307-13.107-1.069-13.398-.831-13.808-.713-14.335-.713H-14.81V2.297L-2.297 6.574H0Z" fill="#ffffff"/>
<path transform="matrix(1,0,0,-1,346.3035,610.1008)" d="M0 0C1.531-2.904 3.366-5.32 5.504-7.247 7.643-9.175 9.847-10.138 12.118-10.138 13.227-10.138 14.282-9.861 15.285-9.307 16.288-8.751 16.791-7.79 16.791-6.415 16.791-5.043 16.327-3.868 15.404-2.891 14.48-1.914 13.331-1.004 11.96-.159 10.585 .684 9.108 1.517 7.524 2.336 5.94 3.154 4.461 4.118 3.089 5.227 1.716 6.336 .567 7.643-.356 9.147-1.28 10.651-1.741 12.513-1.741 14.73-1.741 16.155-1.386 17.488-.673 18.729 .04 19.97 1.043 21.052 2.337 21.977 3.63 22.899 5.16 23.626 6.93 24.155 8.698 24.682 10.613 24.946 12.672 24.946 15.152 24.946 17.41 24.602 19.444 23.918 21.475 23.231 23.126 22.385 24.393 21.382L24.711 11.167H23.126C22.175 14.228 20.802 16.722 19.008 18.651 17.212 20.577 15.127 21.541 12.751 21.541 11.272 21.541 10.11 21.197 9.267 20.512 8.421 19.825 8 19.032 8 18.135 8 16.868 8.447 15.76 9.345 14.81 10.243 13.86 11.377 12.974 12.751 12.157 14.124 11.337 15.588 10.506 17.147 9.661 18.704 8.817 20.168 7.866 21.542 6.81 22.915 5.754 24.049 4.514 24.948 3.088 25.845 1.663 26.293-.027 26.293-1.98 26.293-4.04 25.858-5.795 24.988-7.247 24.116-8.7 22.979-9.888 21.582-10.811 20.182-11.735 18.598-12.408 16.829-12.831 15.06-13.252 13.305-13.464 11.563-13.464 9.24-13.464 6.903-13.147 4.554-12.514 2.204-11.88 .21-11.115-1.426-10.217L-1.584 0Z" fill="#ffffff"/>
<path transform="matrix(1,0,0,-1,389.2279,614.8534)" d="M0 0C0-2.059 .224-3.393 .673-3.999 1.121-4.607 1.901-4.91 3.01-4.91V-7.92H-15.047V-4.91C-13.938-4.91-13.16-4.593-12.711-3.96-12.262-3.326-12.038-1.98-12.038 .08V35.877C-12.038 37.09-12.21 38.055-12.552 38.767-12.897 39.48-13.649 39.783-14.81 39.679V42.687L-2.297 46.964H0Z" fill="#ffffff"/>
<path transform="matrix(1,0,0,-1,414.4915,603.7653)" d="M0 0C-1.32-.053-2.454-.33-3.404-.831-4.356-1.334-5.121-1.954-5.701-2.693-6.283-3.433-6.718-4.237-7.008-5.108-7.3-5.98-7.444-6.838-7.444-7.683-7.393-9.214-6.93-10.561-6.058-11.721-5.187-12.884-3.907-13.464-2.217-13.464-1.424-13.464-.66-13.332 .08-13.068ZM-19.641 5.544C-19.641 7.391-19.232 9.068-18.412 10.573-17.595 12.077-16.432 13.357-14.928 14.414-13.424 15.47-11.641 16.301-9.583 16.908-7.523 17.515-5.227 17.819-2.693 17.819-1.161 17.819 .501 17.687 2.297 17.424 4.091 17.158 5.754 16.631 7.287 15.839 8.817 15.047 10.098 13.885 11.128 12.354 12.157 10.823 12.672 8.791 12.672 6.257V-10.534-12.83C12.672-13.517 12.764-14.097 12.95-14.572 13.134-15.048 13.464-15.418 13.939-15.681 14.415-15.946 15.127-16.077 16.078-16.077L16.157-19.008C14.941-19.112 13.635-19.205 12.237-19.285 10.837-19.364 9.451-19.404 8.078-19.404 7.021-19.404 6.006-19.351 5.03-19.245 4.051-19.139 3.194-18.955 2.456-18.691 1.716-18.428 1.136-18.071 .713-17.622 .29-17.174 .08-16.579 .08-15.84-1.083-17.002-2.376-17.886-3.801-18.492-5.227-19.099-6.864-19.429-8.711-19.482-10.19-19.535-11.63-19.389-13.027-19.047-14.427-18.705-15.681-18.176-16.789-17.464-17.898-16.751-18.797-15.814-19.482-14.652-20.169-13.491-20.512-12.091-20.512-10.454-20.512-7.815-19.799-5.69-18.374-4.078-16.948-2.468-15.192-1.201-13.107-.277-11.021 .646-8.79 1.319-6.414 1.743-4.038 2.164-1.9 2.507 0 2.771 0 3.51 .027 4.54 .08 5.86 .132 7.18 .08 8.474-.079 9.741-.237 11.008-.581 12.104-1.109 13.028-1.637 13.951-2.507 14.414-3.721 14.414-4.778 14.414-5.636 14.11-6.296 13.503-6.957 12.895-7.457 12.143-7.8 11.245-8.144 10.347-8.368 9.397-8.474 8.394-8.58 7.391-8.633 6.467-8.633 5.623Z" fill="#ffffff"/>
<path transform="matrix(1,0,0,-1,447.2004,591.6485)" d="M0 0C1.584 1.847 3.418 3.234 5.504 4.158 7.59 5.081 9.688 5.57 11.801 5.623 13.331 5.623 14.783 5.373 16.157 4.871 17.528 4.368 18.742 3.616 19.799 2.614 20.855 1.61 21.701 .357 22.334-1.149 22.968-2.653 23.284-4.434 23.284-6.494V-23.205C23.284-25.264 23.508-26.598 23.958-27.204 24.405-27.812 25.185-28.115 26.293-28.115V-31.125H8.237V-28.115C9.345-28.115 10.124-27.798 10.573-27.165 11.021-26.531 11.245-25.185 11.245-23.125V-9.583C11.245-8.105 11.218-6.785 11.167-5.623 11.114-4.463 10.968-3.473 10.731-2.653 10.494-1.836 10.11-1.216 9.583-.791 9.054-.37 8.288-.159 7.286-.159 5.913-.159 4.62-.554 3.406-1.346 2.19-2.138 1.056-3.141 0-4.356V-23.205C0-25.264 .224-26.598 .673-27.204 1.121-27.812 1.901-28.115 3.01-28.115V-31.125H-15.048V-28.115C-13.938-28.115-13.161-27.798-12.711-27.165-12.264-26.531-12.038-25.185-12.038-23.125V-5.623C-12.038-4.408-12.21-3.444-12.552-2.733-12.897-2.02-13.649-1.716-14.81-1.821V1.188L-2.297 5.465H0Z" fill="#ffffff"/>
<path transform="matrix(1,0,0,-1,186.4932,667.6092)" d="M0 0C1.246 0 2.302 .29 3.168 .871 4.033 1.451 4.746 2.191 5.307 3.089 5.866 3.986 6.272 4.99 6.526 6.098 6.78 7.207 6.907 8.3 6.907 9.378 6.907 10.497 6.764 11.563 6.479 12.577 6.194 13.59 5.761 14.494 5.179 15.285 4.599 16.077 3.859 16.706 2.962 17.17 2.065 17.634 1.003 17.867-.222 17.867-.433 17.867-.633 17.862-.824 17.852-1.013 17.84-1.214 17.825-1.426 17.804V0ZM-6.24 15.048C-6.24 15.406-6.272 15.761-6.336 16.109-6.399 16.457-6.515 16.769-6.684 17.043-6.854 17.318-7.075 17.54-7.349 17.709-7.623 17.877-7.973 17.963-8.394 17.963V19.165H-5.923L-1.013 19.197H1.458C3.063 19.197 4.509 19.012 5.798 18.643 7.086 18.273 8.184 17.676 9.093 16.853 10 16.029 10.698 14.963 11.184 13.653 11.668 12.344 11.912 10.759 11.912 8.902 11.912 6.537 11.61 4.673 11.008 3.31 10.406 1.948 9.54 .919 8.411 .222 7.282-.476 5.909-.919 4.292-1.109 2.677-1.299 .856-1.393-1.172-1.393H-2.978L-6.589-1.362H-8.394V-.159C-7.973-.159-7.623-.075-7.349 .095-7.075 .264-6.854 .486-6.684 .761-6.515 1.035-6.399 1.351-6.336 1.711-6.272 2.07-6.24 2.418-6.24 2.756Z" fill="#ffffff"/>
<path transform="matrix(1,0,0,-1,207.9722,668.2744)" d="M0 0C.675 0 1.236 .247 1.68 .744 2.123 1.24 2.471 1.832 2.725 2.519 2.978 3.205 3.157 3.923 3.264 4.673 3.368 5.422 3.421 6.051 3.421 6.557 3.421 7.064 3.375 7.686 3.279 8.426 3.184 9.165 3.01 9.878 2.756 10.565 2.503 11.251 2.154 11.832 1.711 12.308 1.267 12.782 .697 13.02 0 13.02-.696 13.02-1.267 12.782-1.711 12.308-2.154 11.832-2.502 11.251-2.756 10.565-3.009 9.878-3.184 9.171-3.278 8.442-3.373 7.714-3.421 7.096-3.421 6.589-3.421 6.083-3.368 5.454-3.263 4.704-3.157 3.955-2.978 3.232-2.724 2.534-2.471 1.837-2.122 1.24-1.678 .744-1.235 .247-.675 0 0 0M0-1.362C-1.139-1.362-2.207-1.172-3.199-.791-4.192-.412-5.053 .126-5.781 .824-6.51 1.521-7.079 2.36-7.492 3.342-7.903 4.325-8.109 5.406-8.109 6.589-8.109 7.772-7.899 8.843-7.476 9.804-7.054 10.766-6.479 11.583-5.749 12.26-5.021 12.935-4.165 13.457-3.184 13.827-2.202 14.197-1.139 14.382 0 14.382 1.119 14.382 2.176 14.197 3.168 13.827 4.161 13.457 5.022 12.935 5.75 12.26 6.479 11.583 7.054 10.766 7.476 9.804 7.899 8.843 8.111 7.772 8.111 6.589 8.111 5.406 7.904 4.329 7.492 3.358 7.081 2.386 6.511 1.552 5.781 .855 5.053 .159 4.192-.385 3.199-.776 2.207-1.167 1.141-1.362 0-1.362" fill="#ffffff"/>
<path transform="matrix(1,0,0,-1,226.4103,659.11978)" d="M0 0C0 .296-.027 .66-.08 1.093-.133 1.526-.233 1.944-.38 2.345-.529 2.746-.735 3.09-.999 3.375-1.263 3.66-1.596 3.803-1.997 3.803-2.398 3.803-2.725 3.66-2.979 3.375-3.232 3.09-3.433 2.746-3.581 2.345-3.728 1.944-3.828 1.526-3.881 1.093-3.934 .66-3.96 .296-3.96 0-3.96-.295-3.934-.66-3.881-1.092-3.828-1.525-3.728-1.937-3.581-2.328-3.433-2.719-3.232-3.056-2.979-3.341-2.725-3.627-2.398-3.769-1.997-3.769-1.596-3.769-1.263-3.627-.999-3.341-.735-3.056-.529-2.719-.38-2.328-.233-1.937-.133-1.525-.08-1.092-.027-.66 0-.295 0 0M-3.422-10.548C-3.76-10.548-4.06-10.643-4.325-10.834-4.589-11.024-4.816-11.266-5.005-11.563-5.196-11.858-5.338-12.175-5.433-12.513-5.529-12.85-5.576-13.157-5.576-13.432-5.576-13.918-5.476-14.339-5.275-14.699-5.075-15.057-4.811-15.354-4.483-15.586-4.156-15.818-3.786-15.992-3.375-16.109-2.962-16.224-2.536-16.283-2.091-16.283-1.669-16.283-1.231-16.224-.777-16.109-.322-15.992 .089-15.818 .459-15.586 .828-15.354 1.134-15.057 1.378-14.699 1.62-14.339 1.741-13.918 1.741-13.432 1.741-12.755 1.567-12.228 1.219-11.847 .87-11.467 .432-11.182-.095-10.991-.624-10.802-1.183-10.681-1.775-10.628-2.367-10.575-2.914-10.548-3.422-10.548M-8.776 0C-8.776 .866-8.591 1.616-8.221 2.249-7.851 2.884-7.372 3.411-6.78 3.834-6.189 4.256-5.518 4.579-4.768 4.8-4.019 5.022-3.264 5.143-2.503 5.164-2.017 6.051-1.39 6.753-.619 7.271 .152 7.788 .96 8.047 1.805 8.047 2.565 8.047 3.152 7.889 3.563 7.572 3.975 7.255 4.218 6.907 4.292 6.526 4.366 6.146 4.286 5.798 4.054 5.481 3.822 5.164 3.431 5.005 2.882 5.005 2.693 5.005 2.507 5.053 2.328 5.148 2.149 5.244 1.958 5.355 1.758 5.481 1.557 5.607 1.346 5.723 1.124 5.829 .902 5.935 .675 5.998 .443 6.02 .189 6.02-.075 5.962-.349 5.846-.624 5.728-.909 5.502-1.204 5.164-.465 5.121 .263 4.99 .981 4.768 1.699 4.546 2.343 4.224 2.914 3.803 3.484 3.38 3.943 2.851 4.292 2.218 4.64 1.584 4.814 .844 4.814 0 4.814-.993 4.608-1.816 4.197-2.471 3.785-3.126 3.251-3.653 2.597-4.054 1.943-4.456 1.203-4.736 .379-4.894-.445-5.052-1.279-5.132-2.123-5.132-3.032-5.132-3.919-4.973-4.784-4.656-4.932-4.719-5.128-4.836-5.37-5.005-5.614-5.174-5.735-5.343-5.735-5.512-5.735-5.723-5.544-5.902-5.164-6.051-4.784-6.198-4.352-6.32-3.866-6.414-3.38-6.51-2.904-6.584-2.44-6.636-1.976-6.689-1.659-6.716-1.49-6.716-.602-6.779 .237-6.89 1.029-7.048 1.821-7.207 2.517-7.476 3.119-7.855 3.721-8.236 4.197-8.759 4.545-9.424 4.894-10.089 5.068-10.939 5.068-11.974 5.068-13.009 4.825-13.885 4.339-14.603 3.853-15.321 3.23-15.908 2.47-16.362 1.711-16.815 .87-17.148-.048-17.359-.967-17.571-1.859-17.676-2.725-17.676-3.38-17.676-4.113-17.602-4.927-17.455-5.74-17.306-6.501-17.059-7.207-16.71-7.916-16.362-8.506-15.903-8.982-15.332-9.456-14.762-9.695-14.065-9.695-13.241-9.695-12.714-9.574-12.253-9.33-11.863-9.088-11.472-8.776-11.145-8.395-10.881-8.015-10.616-7.587-10.417-7.113-10.28-6.637-10.142-6.168-10.074-5.703-10.074-6.443-9.842-7.096-9.467-7.667-8.948-8.237-8.431-8.522-7.751-8.522-6.905-8.522-6.167-8.269-5.56-7.762-5.084-7.255-4.608-6.664-4.287-5.988-4.117-6.748-3.696-7.403-3.136-7.952-2.439-8.501-1.741-8.776-.929-8.776 0" fill="#ffffff"/>
<path transform="matrix(1,0,0,-1,240.2209,661.36917)" d="M0 0C-.529-.021-.982-.131-1.363-.333-1.743-.532-2.048-.781-2.28-1.076-2.514-1.373-2.688-1.694-2.804-2.043-2.92-2.391-2.978-2.734-2.978-3.072-2.957-3.685-2.771-4.224-2.423-4.688-2.075-5.152-1.564-5.384-.887-5.384-.57-5.384-.264-5.333 .032-5.227ZM-7.857 2.218C-7.857 2.957-7.693 3.627-7.365 4.229-7.038 4.831-6.574 5.343-5.972 5.766-5.37 6.189-4.657 6.521-3.834 6.764-3.01 7.007-2.091 7.128-1.078 7.128-.465 7.128 .2 7.075 .919 6.97 1.636 6.864 2.302 6.653 2.914 6.337 3.527 6.02 4.038 5.554 4.451 4.942 4.862 4.33 5.068 3.516 5.068 2.503V-4.213-5.132C5.068-5.406 5.106-5.638 5.179-5.828 5.253-6.018 5.386-6.167 5.575-6.272 5.766-6.378 6.051-6.43 6.431-6.43L6.462-7.603C5.976-7.644 5.454-7.681 4.894-7.714 4.335-7.744 3.781-7.761 3.232-7.761 2.809-7.761 2.403-7.739 2.012-7.697 1.62-7.654 1.277-7.582 .982-7.475 .686-7.371 .454-7.228 .285-7.048 .116-6.869 .032-6.631 .032-6.336-.433-6.8-.95-7.154-1.521-7.396-2.091-7.639-2.746-7.772-3.484-7.792-4.076-7.813-4.652-7.755-5.212-7.618-5.771-7.481-6.272-7.27-6.716-6.985-7.159-6.699-7.519-6.325-7.793-5.86-8.068-5.396-8.205-4.836-8.205-4.182-8.205-3.125-7.92-2.275-7.35-1.631-6.779-.987-6.078-.48-5.242-.111-4.408 .259-3.516 .529-2.566 .697-1.615 .866-.761 1.003 0 1.11 0 1.405 .01 1.816 .032 2.345 .053 2.872 .032 3.39-.032 3.897-.095 4.405-.233 4.842-.443 5.212-.655 5.581-1.003 5.766-1.489 5.766-1.912 5.766-2.255 5.645-2.519 5.402-2.783 5.159-2.983 4.858-3.121 4.499-3.259 4.139-3.348 3.76-3.39 3.359-3.433 2.957-3.453 2.587-3.453 2.249Z" fill="#ffffff"/>
<path transform="matrix(1,0,0,-1,253.3354,665.80337)" d="M0 0C0-.824 .089-1.357 .269-1.6 .449-1.843 .761-1.964 1.204-1.964V-3.168H-6.02V-1.964C-5.575-1.964-5.264-1.838-5.085-1.584-4.906-1.33-4.816-.793-4.816 .031V14.351C-4.816 14.835-4.884 15.222-5.021 15.507-5.159 15.792-5.46 15.913-5.924 15.87V17.074L-.919 18.785H0Z" fill="#ffffff"/>
<path transform="matrix(1,0,0,-1,271.6782,662.3822)" d="M0 0-2.599 5.766-5.07 0ZM7.412-3.326C7.644-3.939 7.966-4.436 8.379-4.814 8.79-5.195 9.271-5.386 9.82-5.386V-6.589H.57V-5.353C.887-5.353 1.145-5.285 1.346-5.148 1.547-5.01 1.683-4.836 1.758-4.625 1.832-4.414 1.852-4.176 1.821-3.912 1.789-3.648 1.711-3.38 1.583-3.104L.696-1.363H-5.672L-6.495-3.295C-6.622-3.612-6.664-3.897-6.622-4.149-6.579-4.403-6.479-4.625-6.32-4.814-6.162-5.005-5.957-5.154-5.703-5.259-5.45-5.365-5.186-5.406-4.911-5.386V-6.589H-10.993V-5.386C-9.536-5.322-8.501-4.562-7.889-3.104L-3.359 7.444C-3.528 7.804-3.712 8.147-3.913 8.474-4.115 8.801-4.393 9.061-4.753 9.25L-1.173 14.318H-.254Z" fill="#ffffff"/>
<path transform="matrix(1,0,0,-1,288.1183,656.9645)" d="M0 0C.254 .443 .554 .828 .904 1.156 1.252 1.482 1.62 1.762 2.012 1.995 2.403 2.227 2.798 2.401 3.199 2.517 3.6 2.633 3.98 2.693 4.34 2.693 4.889 2.693 5.358 2.55 5.75 2.265 6.141 1.98 6.336 1.53 6.336 .918 6.336 .326 6.114-.107 5.67-.38 5.227-.655 4.741-.793 4.214-.793 3.77-.793 3.348-.755 2.947-.682 2.545-.608 2.164-.571 1.806-.571 1.446-.571 1.114-.645 .808-.793 .501-.941 .232-1.257 0-1.743V-8.839C0-9.093 .005-9.335 .015-9.567 .027-9.8 .068-10.007 .143-10.186 .217-10.365 .333-10.513 .491-10.629 .65-10.745 .887-10.803 1.204-10.803V-12.007H-6.018V-10.803C-5.701-10.803-5.464-10.745-5.306-10.629-5.147-10.513-5.032-10.36-4.958-10.169-4.884-9.98-4.842-9.768-4.831-9.536-4.821-9.304-4.814-9.061-4.814-8.808V-1.806C-4.814-1.637-4.826-1.468-4.847-1.299-4.867-1.13-4.91-.967-4.973-.808-5.036-.65-5.126-.523-5.242-.428-5.358-.333-5.522-.286-5.734-.286H-5.924V.918L-.919 2.628H0Z" fill="#ffffff"/>
<path transform="matrix(1,0,0,-1,300.6309,665.80337)" d="M0 0C0-.824 .09-1.357 .269-1.6 .449-1.843 .761-1.964 1.204-1.964V-3.168H-6.018V-1.964C-5.575-1.964-5.263-1.838-5.084-1.584-4.905-1.33-4.814-.793-4.814 .031V7.033C-4.814 7.518-4.884 7.904-5.021 8.189-5.159 8.474-5.459 8.595-5.923 8.553V9.757L-.918 11.467H0Z" fill="#ffffff"/>
<path transform="matrix(1,0,0,-1,319.4171,643.7237)" d="M0 0C0 .675 .226 1.231 .681 1.664 1.134 2.096 1.741 2.313 2.502 2.313 3.263 2.313 3.87 2.096 4.323 1.664 4.777 1.231 5.005 .675 5.005 0 5.005-.696 4.777-1.262 4.323-1.694 3.87-2.127 3.263-2.343 2.502-2.343 1.741-2.343 1.134-2.127 .681-1.694 .226-1.262 0-.696 0 0M-5.607 .032C-5.607 .708-5.38 1.262-4.927 1.695-4.473 2.128-3.876 2.345-3.136 2.345-2.398 2.345-1.801 2.128-1.347 1.695-.893 1.262-.665 .708-.665 .032-.665-.686-.893-1.262-1.347-1.694-1.801-2.127-2.398-2.343-3.136-2.343-3.876-2.343-4.473-2.127-4.927-1.694-5.38-1.262-5.607-.686-5.607 .032M-3.136-18.848C-3.136-19.631-3.047-20.369-2.868-21.066-2.689-21.763-2.419-22.376-2.06-22.903-1.7-23.432-1.231-23.843-.65-24.14-.07-24.435 .612-24.583 1.393-24.583 2.048-24.583 2.686-24.455 3.31-24.203 3.933-23.949 4.487-23.59 4.973-23.125 5.459-22.661 5.85-22.102 6.145-21.447 6.441-20.792 6.588-20.064 6.588-19.261V-16.631L6.62-11.436V-8.807C6.62-8.447 6.588-8.094 6.525-7.746 6.462-7.396 6.346-7.086 6.177-6.811 6.008-6.537 5.786-6.315 5.512-6.145 5.237-5.976 4.888-5.892 4.466-5.892V-4.688H10.137V-5.892C9.714-5.892 9.366-5.976 9.091-6.145 8.817-6.315 8.595-6.537 8.426-6.811 8.256-7.086 8.141-7.396 8.077-7.746 8.014-8.094 7.983-8.447 7.983-8.807L7.951-19.324C7.951-20.528 7.724-21.541 7.27-22.365 6.815-23.188 6.22-23.853 5.48-24.361 4.741-24.868 3.901-25.238 2.961-25.47 2.021-25.702 1.066-25.818 .094-25.818-.941-25.818-1.939-25.686-2.899-25.422-3.861-25.158-4.715-24.747-5.465-24.186-6.216-23.628-6.816-22.908-7.271-22.032-7.725-21.157-7.952-20.115-7.952-18.913V-8.648C-7.952-8.29-7.989-7.946-8.063-7.618-8.138-7.291-8.252-7.001-8.411-6.747-8.569-6.494-8.786-6.293-9.061-6.145-9.335-5.998-9.684-5.923-10.106-5.923V-4.72H-.982V-5.923C-1.384-5.923-1.727-5.998-2.012-6.145-2.297-6.293-2.519-6.494-2.677-6.747-2.836-7.001-2.952-7.291-3.025-7.618-3.1-7.946-3.136-8.29-3.136-8.648Z" fill="#ffffff"/>
<path transform="matrix(1,0,0,-1,335.6046,656.9645)" d="M0 0C.254 .443 .554 .828 .904 1.156 1.252 1.482 1.62 1.762 2.012 1.995 2.403 2.227 2.798 2.401 3.199 2.517 3.6 2.633 3.98 2.693 4.34 2.693 4.889 2.693 5.358 2.55 5.75 2.265 6.141 1.98 6.336 1.53 6.336 .918 6.336 .326 6.114-.107 5.67-.38 5.227-.655 4.741-.793 4.214-.793 3.77-.793 3.348-.755 2.947-.682 2.545-.608 2.164-.571 1.806-.571 1.446-.571 1.114-.645 .808-.793 .501-.941 .232-1.257 0-1.743V-8.839C0-9.093 .005-9.335 .015-9.567 .027-9.8 .068-10.007 .143-10.186 .217-10.365 .333-10.513 .491-10.629 .65-10.745 .887-10.803 1.204-10.803V-12.007H-6.018V-10.803C-5.701-10.803-5.464-10.745-5.306-10.629-5.147-10.513-5.032-10.36-4.958-10.169-4.884-9.98-4.842-9.768-4.831-9.536-4.821-9.304-4.815-9.061-4.815-8.808V-1.806C-4.815-1.637-4.826-1.468-4.847-1.299-4.867-1.13-4.91-.967-4.973-.808-5.036-.65-5.126-.523-5.242-.428-5.358-.333-5.522-.286-5.734-.286H-5.924V.918L-.919 2.628H0Z" fill="#ffffff"/>
<path transform="matrix(1,0,0,-1,351.158,649.8684)" d="M0 0C0 .675 .227 1.23 .682 1.663 1.136 2.095 1.743 2.313 2.503 2.313 3.263 2.313 3.87 2.095 4.325 1.663 4.778 1.23 5.005 .675 5.005 0 5.005-.697 4.778-1.263 4.325-1.695 3.87-2.128 3.263-2.345 2.503-2.345 1.743-2.345 1.136-2.128 .682-1.695 .227-1.263 0-.697 0 0M-5.607 .031C-5.607 .706-5.38 1.261-4.925 1.694-4.472 2.127-3.876 2.343-3.136 2.343-2.398 2.343-1.801 2.127-1.346 1.694-.892 1.261-.665 .706-.665 .031-.665-.687-.892-1.263-1.346-1.695-1.801-2.128-2.398-2.345-3.136-2.345-3.876-2.345-4.472-2.128-4.925-1.695-5.38-1.263-5.607-.687-5.607 .031M.982-19.103V-16.759C.496-17.562-.111-18.206-.839-18.691-1.567-19.177-2.45-19.42-3.484-19.42-4.202-19.42-4.831-19.288-5.37-19.023-5.908-18.76-6.357-18.396-6.716-17.93-7.075-17.466-7.338-16.917-7.507-16.283-7.677-15.65-7.761-14.975-7.761-14.257L-7.729-8.808C-7.729-8.363-7.804-8.005-7.951-7.73-8.099-7.456-8.395-7.34-8.839-7.382V-6.178L-3.834-4.468H-2.914L-2.945-13.211C-2.945-14.541-2.824-15.519-2.582-16.141-2.34-16.764-1.964-17.076-1.457-17.076-1.013-17.076-.586-16.844-.174-16.378 .237-15.914 .623-15.345 .982-14.668L1.014-8.808C1.014-8.363 .94-8.005 .793-7.73 .645-7.456 .348-7.34-.095-7.382V-6.178L4.91-4.468H5.829L5.798-15.935C5.798-16.189 5.802-16.431 5.814-16.663 5.824-16.896 5.866-17.103 5.94-17.282 6.013-17.461 6.131-17.609 6.288-17.725 6.446-17.841 6.685-17.899 7.001-17.899V-19.103Z" fill="#ffffff"/>
<path transform="matrix(1,0,0,-1,364.431,656.5211)" d="M0 0C.634 .739 1.368 1.293 2.202 1.663 3.036 2.032 3.876 2.227 4.72 2.249 5.333 2.249 5.913 2.149 6.463 1.948 7.012 1.747 7.497 1.446 7.92 1.045 8.343 .643 8.68 .142 8.934-.46 9.187-1.062 9.314-1.775 9.314-2.599V-9.282C9.314-10.106 9.403-10.64 9.583-10.882 9.762-11.126 10.074-11.247 10.517-11.247V-12.451H3.295V-11.247C3.738-11.247 4.05-11.12 4.229-10.866 4.408-10.613 4.499-10.075 4.499-9.251V-3.834C4.499-3.243 4.488-2.715 4.466-2.249 4.446-1.785 4.388-1.39 4.292-1.062 4.198-.735 4.044-.486 3.834-.317 3.622-.148 3.315-.064 2.914-.064 2.365-.064 1.848-.222 1.362-.539 .877-.856 .423-1.257 0-1.743V-9.282C0-10.106 .09-10.64 .269-10.882 .449-11.126 .761-11.247 1.204-11.247V-12.451H-6.018V-11.247C-5.575-11.247-5.264-11.12-5.084-10.866-4.905-10.613-4.815-10.075-4.815-9.251V-2.249C-4.815-1.765-4.884-1.378-5.021-1.093-5.159-.808-5.459-.687-5.924-.73V.474L-.919 2.185H0Z" fill="#ffffff"/>
<path transform="matrix(1,0,0,-1,381.7593,665.80337)" d="M0 0C0-.824 .089-1.357 .269-1.6 .449-1.843 .761-1.964 1.204-1.964V-3.168H-6.02V-1.964C-5.575-1.964-5.264-1.838-5.085-1.584-4.906-1.33-4.816-.793-4.816 .031V14.351C-4.816 14.835-4.884 15.222-5.021 15.507-5.159 15.792-5.46 15.913-5.924 15.87V17.074L-.919 18.785H0Z" fill="#ffffff"/>
<path transform="matrix(1,0,0,-1,393.5449,660.7027)" d="M0 0C.063 .464 .089 .993 .079 1.583 .067 2.175-.017 2.734-.175 3.263-.334 3.79-.598 4.233-.967 4.593-1.337 4.952-1.838 5.132-2.471 5.132-3.063 5.132-3.554 4.952-3.944 4.593-4.336 4.233-4.647 3.79-4.879 3.263-5.112 2.734-5.281 2.175-5.386 1.583-5.493 .993-5.544 .464-5.544 0ZM-2.503 6.494C-1.426 6.494-.508 6.283 .253 5.86 1.013 5.437 1.636 4.878 2.122 4.182 2.608 3.484 2.966 2.693 3.199 1.805 3.431 .918 3.547 0 3.547-.951V-1.363H-5.45C-5.365-1.912-5.228-2.45-5.038-2.979-4.848-3.506-4.589-3.982-4.262-4.403-3.934-4.826-3.538-5.164-3.073-5.418-2.609-5.672-2.06-5.798-1.426-5.798-.561-5.798 .2-5.529 .855-4.99 1.509-4.451 2.037-3.823 2.439-3.105H3.421C3.061-4.71 2.333-6.025 1.235-7.05 .137-8.073-1.268-8.586-2.979-8.586-4.035-8.586-4.99-8.395-5.846-8.015-6.7-7.635-7.43-7.118-8.032-6.463-8.633-5.808-9.093-5.037-9.41-4.151-9.726-3.264-9.884-2.302-9.884-1.267-9.884-.128-9.7 .918-9.33 1.869-8.961 2.819-8.453 3.638-7.809 4.323-7.166 5.009-6.39 5.543-5.481 5.923-4.573 6.303-3.581 6.494-2.503 6.494" fill="#ffffff"/>
<path transform="matrix(1,0,0,-1,403.3015,656.9645)" d="M0 0C.254 .443 .554 .828 .904 1.156 1.252 1.482 1.62 1.762 2.012 1.995 2.403 2.227 2.798 2.401 3.199 2.517 3.6 2.633 3.98 2.693 4.34 2.693 4.889 2.693 5.358 2.55 5.75 2.265 6.141 1.98 6.336 1.53 6.336 .918 6.336 .326 6.114-.107 5.67-.38 5.227-.655 4.741-.793 4.214-.793 3.77-.793 3.348-.755 2.947-.682 2.545-.608 2.164-.571 1.806-.571 1.446-.571 1.114-.645 .808-.793 .501-.941 .232-1.257 0-1.743V-8.839C0-9.093 .005-9.335 .015-9.567 .027-9.8 .068-10.007 .143-10.186 .217-10.365 .333-10.513 .491-10.629 .65-10.745 .887-10.803 1.204-10.803V-12.007H-6.018V-10.803C-5.701-10.803-5.464-10.745-5.306-10.629-5.147-10.513-5.032-10.36-4.958-10.169-4.884-9.98-4.842-9.768-4.831-9.536-4.821-9.304-4.815-9.061-4.815-8.808V-1.806C-4.815-1.637-4.826-1.468-4.847-1.299-4.867-1.13-4.91-.967-4.973-.808-5.036-.65-5.126-.523-5.242-.428-5.358-.333-5.522-.286-5.734-.286H-5.924V.918L-.919 2.628H0Z" fill="#ffffff"/>
<path transform="matrix(1,0,0,-1,410.5239,649.5526)" d="M0 0C0 .803 .254 1.468 .761 1.997 1.267 2.524 1.943 2.788 2.788 2.788 3.675 2.788 4.376 2.524 4.894 1.997 5.411 1.468 5.67 .803 5.67 0 5.67-.803 5.411-1.484 4.894-2.043 4.376-2.603 3.675-2.882 2.788-2.882 1.943-2.882 1.267-2.603 .761-2.043 .254-1.484 0-.803 0 0M5.29-16.251C5.29-17.074 5.38-17.608 5.56-17.85 5.739-18.094 6.051-18.215 6.494-18.215V-19.419H-.728V-18.215C-.285-18.215 .027-18.089 .206-17.835 .385-17.581 .476-17.043 .476-16.22V-9.218C.476-8.733 .406-8.346 .269-8.062 .131-7.777-.169-7.656-.633-7.698V-6.494L4.372-4.784H5.29Z" fill="#ffffff"/>
</g>
</svg>
